<?xml version="1.0" encoding="UTF-8" standalone="no"?>
<!DOCTYPE svg PUBLIC "-//W3C//DTD SVG 1.1//EN"
 "http://www.w3.org/Graphics/SVG/1.1/DTD/svg11.dtd">
<!-- Generated by graphviz version 2.40.1 (20161225.0304)
 -->
<!-- Title: dependencies Pages: 1 -->
<svg width="926pt" height="284pt"
 viewBox="0.00 0.00 926.00 284.00" xmlns="http://www.w3.org/2000/svg" xmlns:xlink="http://www.w3.org/1999/xlink">
<g id="graph0" class="graph" transform="scale(1 1) rotate(0) translate(4 280)">
<title>dependencies</title>
<polygon fill="#ffffff" stroke="transparent" points="-4,4 -4,-280 922,-280 922,4 -4,4"/>
<text text-anchor="start" x="438.0091" y="-42.4" font-family="sans-serif" font-weight="bold" font-size="14.00" fill="#000000">Legend</text>
<polygon fill="#ffffb3" stroke="transparent" points="225,-10 225,-30 245,-30 245,-10 225,-10"/>
<text text-anchor="start" x="248.629" y="-15.4" font-family="sans-serif" font-size="14.00" fill="#000000"> &#160;Declarations</text>
<polygon fill="#8dd3c7" stroke="transparent" points="338,-10 338,-30 358,-30 358,-10 338,-10"/>
<text text-anchor="start" x="361.7251" y="-15.4" font-family="sans-serif" font-size="14.00" fill="#000000"> &#160;Module</text>
<polygon fill="#80b1d3" stroke="transparent" points="424,-10 424,-30 444,-30 444,-10 424,-10"/>
<text text-anchor="start" x="447.7812" y="-15.4" font-family="sans-serif" font-size="14.00" fill="#000000"> &#160;Bootstrap</text>
<polygon fill="#fdb462" stroke="transparent" points="521,-10 521,-30 541,-30 541,-10 521,-10"/>
<text text-anchor="start" x="544.6732" y="-15.4" font-family="sans-serif" font-size="14.00" fill="#000000"> &#160;Providers</text>
<polygon fill="#fb8072" stroke="transparent" points="617,-10 617,-30 637,-30 637,-10 617,-10"/>
<text text-anchor="start" x="640.7258" y="-15.4" font-family="sans-serif" font-size="14.00" fill="#000000"> &#160;Exports</text>
<g id="clust1" class="cluster">
<title>cluster_JsonSchemaFormModule</title>
<polygon fill="none" stroke="#000000" stroke-dasharray="1,5" points="8,-70 8,-268 910,-268 910,-70 8,-70"/>
</g>
<g id="clust3" class="cluster">
<title>cluster_JsonSchemaFormModule_imports</title>
<polygon fill="none" stroke="#000000" points="28,-78 28,-130 889,-130 889,-78 28,-78"/>
</g>
<g id="clust4" class="cluster">
<title>cluster_JsonSchemaFormModule_exports</title>
<polygon fill="none" stroke="#000000" points="16,-208 16,-260 902,-260 902,-208 16,-208"/>
</g>
<!-- ButtonModule -->
<g id="node1" class="node">
<title>ButtonModule</title>
<polygon fill="#8dd3c7" stroke="#000000" points="880.6682,-122 877.6682,-126 856.6682,-126 853.6682,-122 783.3318,-122 783.3318,-86 880.6682,-86 880.6682,-122"/>
<text text-anchor="middle" x="832" y="-99.8" font-family="Times,serif" font-size="14.00" fill="#000000">ButtonModule</text>
</g>
<!-- JsonSchemaFormModule -->
<g id="node8" class="node">
<title>JsonSchemaFormModule</title>
<polygon fill="#8dd3c7" stroke="#000000" points="562.5898,-187 559.5898,-191 538.5898,-191 535.5898,-187 403.4102,-187 403.4102,-151 562.5898,-151 562.5898,-187"/>
<text text-anchor="middle" x="483" y="-164.8" font-family="Times,serif" font-size="14.00" fill="#000000">JsonSchemaFormModule</text>
</g>
<!-- ButtonModule&#45;&gt;JsonSchemaFormModule -->
<g id="edge1" class="edge">
<title>ButtonModule&#45;&gt;JsonSchemaFormModule</title>
<path fill="none" stroke="#000000" d="M787.7912,-122.2667C787.7912,-140.5552 787.7912,-166 787.7912,-166 787.7912,-166 572.6822,-166 572.6822,-166"/>
<polygon fill="#000000" stroke="#000000" points="572.6822,-162.5001 562.6822,-166 572.6821,-169.5001 572.6822,-162.5001"/>
</g>
<!-- ContainerModule -->
<g id="node2" class="node">
<title>ContainerModule</title>
<polygon fill="#8dd3c7" stroke="#000000" points="765.2577,-122 762.2577,-126 741.2577,-126 738.2577,-122 650.7423,-122 650.7423,-86 765.2577,-86 765.2577,-122"/>
<text text-anchor="middle" x="708" y="-99.8" font-family="Times,serif" font-size="14.00" fill="#000000">ContainerModule</text>
</g>
<!-- ContainerModule&#45;&gt;JsonSchemaFormModule -->
<g id="edge2" class="edge">
<title>ContainerModule&#45;&gt;JsonSchemaFormModule</title>
<path fill="none" stroke="#000000" d="M728.8762,-122.0091C728.8762,-138.0494 728.8762,-159 728.8762,-159 728.8762,-159 572.829,-159 572.829,-159"/>
<polygon fill="#000000" stroke="#000000" points="572.829,-155.5001 562.829,-159 572.8289,-162.5001 572.829,-155.5001"/>
</g>
<!-- CoreModule -->
<g id="node3" class="node">
<title>CoreModule</title>
<polygon fill="#8dd3c7" stroke="#000000" points="632.2619,-122 629.2619,-126 608.2619,-126 605.2619,-122 545.7381,-122 545.7381,-86 632.2619,-86 632.2619,-122"/>
<text text-anchor="middle" x="589" y="-99.8" font-family="Times,serif" font-size="14.00" fill="#000000">CoreModule</text>
</g>
<!-- CoreModule&#45;&gt;JsonSchemaFormModule -->
<g id="edge3" class="edge">
<title>CoreModule&#45;&gt;JsonSchemaFormModule</title>
<path fill="none" stroke="#000000" d="M554.0821,-122.1061C554.0821,-122.1061 554.0821,-140.991 554.0821,-140.991"/>
<polygon fill="#000000" stroke="#000000" points="550.5821,-140.9909 554.0821,-150.991 557.5821,-140.991 550.5821,-140.9909"/>
</g>
<!-- FormModule -->
<g id="node4" class="node">
<title>FormModule</title>
<polygon fill="#8dd3c7" stroke="#000000" points="527.8837,-122 524.8837,-126 503.8837,-126 500.8837,-122 438.1163,-122 438.1163,-86 527.8837,-86 527.8837,-122"/>
<text text-anchor="middle" x="483" y="-99.8" font-family="Times,serif" font-size="14.00" fill="#000000">FormModule</text>
</g>
<!-- FormModule&#45;&gt;JsonSchemaFormModule -->
<g id="edge4" class="edge">
<title>FormModule&#45;&gt;JsonSchemaFormModule</title>
<path fill="none" stroke="#000000" d="M483,-122.1061C483,-122.1061 483,-140.991 483,-140.991"/>
<polygon fill="#000000" stroke="#000000" points="479.5001,-140.9909 483,-150.991 486.5001,-140.991 479.5001,-140.9909"/>
</g>
<!-- HiddenModule -->
<g id="node5" class="node">
<title>HiddenModule</title>
<polygon fill="#8dd3c7" stroke="#000000" points="420.2619,-122 417.2619,-126 396.2619,-126 393.2619,-122 319.7381,-122 319.7381,-86 420.2619,-86 420.2619,-122"/>
<text text-anchor="middle" x="370" y="-99.8" font-family="Times,serif" font-size="14.00" fill="#000000">HiddenModule</text>
</g>
<!-- HiddenModule&#45;&gt;JsonSchemaFormModule -->
<g id="edge5" class="edge">
<title>HiddenModule&#45;&gt;JsonSchemaFormModule</title>
<path fill="none" stroke="#000000" d="M411.918,-122.1061C411.918,-122.1061 411.918,-140.991 411.918,-140.991"/>
<polygon fill="#000000" stroke="#000000" points="408.418,-140.9909 411.918,-150.991 415.418,-140.991 408.418,-140.9909"/>
</g>
<!-- SelectWidgetModule -->
<g id="node6" class="node">
<title>SelectWidgetModule</title>
<polygon fill="#8dd3c7" stroke="#000000" points="301.4678,-122 298.4678,-126 277.4678,-126 274.4678,-122 166.5322,-122 166.5322,-86 301.4678,-86 301.4678,-122"/>
<text text-anchor="middle" x="234" y="-99.8" font-family="Times,serif" font-size="14.00" fill="#000000">SelectWidgetModule</text>
</g>
<!-- SelectWidgetModule&#45;&gt;JsonSchemaFormModule -->
<g id="edge6" class="edge">
<title>SelectWidgetModule&#45;&gt;JsonSchemaFormModule</title>
<path fill="none" stroke="#000000" d="M252.9946,-122.0091C252.9946,-138.0494 252.9946,-159 252.9946,-159 252.9946,-159 393.2008,-159 393.2008,-159"/>
<polygon fill="#000000" stroke="#000000" points="393.2008,-162.5001 403.2008,-159 393.2008,-155.5001 393.2008,-162.5001"/>
</g>
<!-- TemplateModule -->
<g id="node7" class="node">
<title>TemplateModule</title>
<polygon fill="#8dd3c7" stroke="#000000" points="148.4188,-122 145.4188,-126 124.4188,-126 121.4188,-122 35.5812,-122 35.5812,-86 148.4188,-86 148.4188,-122"/>
<text text-anchor="middle" x="92" y="-99.8" font-family="Times,serif" font-size="14.00" fill="#000000">TemplateModule</text>
</g>
<!-- TemplateModule&#45;&gt;JsonSchemaFormModule -->
<g id="edge7" class="edge">
<title>TemplateModule&#45;&gt;JsonSchemaFormModule</title>
<path fill="none" stroke="#000000" d="M144.084,-122.2667C144.084,-140.5552 144.084,-166 144.084,-166 144.084,-166 393.1108,-166 393.1108,-166"/>
<polygon fill="#000000" stroke="#000000" points="393.1108,-169.5001 403.1108,-166 393.1108,-162.5001 393.1108,-169.5001"/>
</g>
<!-- ButtonModule  -->
<g id="node9" class="node">
<title>ButtonModule </title>
<polygon fill="#fb8072" stroke="#000000" points="893.6677,-252 792.3323,-252 792.3323,-216 893.6677,-216 893.6677,-252"/>
<text text-anchor="middle" x="843" y="-229.8" font-family="Times,serif" font-size="14.00" fill="#000000">ButtonModule </text>
</g>
<!-- JsonSchemaFormModule&#45;&gt;ButtonModule  -->
<g id="edge8" class="edge">
<title>JsonSchemaFormModule&#45;&gt;ButtonModule </title>
<path fill="none" stroke="#000000" stroke-dasharray="5,2" d="M562.8013,-173C667.0993,-173 836.625,-173 836.625,-173 836.625,-173 836.625,-205.698 836.625,-205.698"/>
<polygon fill="#000000" stroke="#000000" points="833.1251,-205.698 836.625,-215.698 840.1251,-205.698 833.1251,-205.698"/>
</g>
<!-- ContainerModule  -->
<g id="node10" class="node">
<title>ContainerModule </title>
<polygon fill="#fb8072" stroke="#000000" points="774.2577,-252 655.7423,-252 655.7423,-216 774.2577,-216 774.2577,-252"/>
<text text-anchor="middle" x="715" y="-229.8" font-family="Times,serif" font-size="14.00" fill="#000000">ContainerModule </text>
</g>
<!-- JsonSchemaFormModule&#45;&gt;ContainerModule  -->
<g id="edge9" class="edge">
<title>JsonSchemaFormModule&#45;&gt;ContainerModule </title>
<path fill="none" stroke="#000000" stroke-dasharray="5,2" d="M562.7525,-180C621.9215,-180 692.3738,-180 692.3738,-180 692.3738,-180 692.3738,-205.7181 692.3738,-205.7181"/>
<polygon fill="#000000" stroke="#000000" points="688.8739,-205.718 692.3738,-215.7181 695.8739,-205.7181 688.8739,-205.718"/>
</g>
<!-- CoreModule  -->
<g id="node11" class="node">
<title>CoreModule </title>
<polygon fill="#fb8072" stroke="#000000" points="638.262,-252 547.738,-252 547.738,-216 638.262,-216 638.262,-252"/>
<text text-anchor="middle" x="593" y="-229.8" font-family="Times,serif" font-size="14.00" fill="#000000">CoreModule </text>
</g>
<!-- JsonSchemaFormModule&#45;&gt;CoreModule  -->
<g id="edge10" class="edge">
<title>JsonSchemaFormModule&#45;&gt;CoreModule </title>
<path fill="none" stroke="#000000" stroke-dasharray="5,2" d="M555.2071,-187.1061C555.2071,-187.1061 555.2071,-205.991 555.2071,-205.991"/>
<polygon fill="#000000" stroke="#000000" points="551.7071,-205.9909 555.2071,-215.991 558.7071,-205.991 551.7071,-205.9909"/>
</g>
<!-- FormModule  -->
<g id="node12" class="node">
<title>FormModule </title>
<polygon fill="#fb8072" stroke="#000000" points="529.8844,-252 436.1156,-252 436.1156,-216 529.8844,-216 529.8844,-252"/>
<text text-anchor="middle" x="483" y="-229.8" font-family="Times,serif" font-size="14.00" fill="#000000">FormModule </text>
</g>
<!-- JsonSchemaFormModule&#45;&gt;FormModule  -->
<g id="edge11" class="edge">
<title>JsonSchemaFormModule&#45;&gt;FormModule </title>
<path fill="none" stroke="#000000" stroke-dasharray="5,2" d="M483,-187.1061C483,-187.1061 483,-205.991 483,-205.991"/>
<polygon fill="#000000" stroke="#000000" points="479.5001,-205.9909 483,-215.991 486.5001,-205.991 479.5001,-205.9909"/>
</g>
<!-- HiddenModule  -->
<g id="node13" class="node">
<title>HiddenModule </title>
<polygon fill="#fb8072" stroke="#000000" points="418.2619,-252 313.7381,-252 313.7381,-216 418.2619,-216 418.2619,-252"/>
<text text-anchor="middle" x="366" y="-229.8" font-family="Times,serif" font-size="14.00" fill="#000000">HiddenModule </text>
</g>
<!-- JsonSchemaFormModule&#45;&gt;HiddenModule  -->
<g id="edge12" class="edge">
<title>JsonSchemaFormModule&#45;&gt;HiddenModule </title>
<path fill="none" stroke="#000000" stroke-dasharray="5,2" d="M410.793,-187.1061C410.793,-187.1061 410.793,-205.991 410.793,-205.991"/>
<polygon fill="#000000" stroke="#000000" points="407.293,-205.9909 410.793,-215.991 414.293,-205.991 407.293,-205.9909"/>
</g>
<!-- SelectWidgetModule  -->
<g id="node14" class="node">
<title>SelectWidgetModule </title>
<polygon fill="#fb8072" stroke="#000000" points="296.4686,-252 157.5314,-252 157.5314,-216 296.4686,-216 296.4686,-252"/>
<text text-anchor="middle" x="227" y="-229.8" font-family="Times,serif" font-size="14.00" fill="#000000">SelectWidgetModule </text>
</g>
<!-- JsonSchemaFormModule&#45;&gt;SelectWidgetModule  -->
<g id="edge13" class="edge">
<title>JsonSchemaFormModule&#45;&gt;SelectWidgetModule </title>
<path fill="none" stroke="#000000" stroke-dasharray="5,2" d="M403.2318,-180C322.5799,-180 209.7554,-180 209.7554,-180 209.7554,-180 209.7554,-205.7181 209.7554,-205.7181"/>
<polygon fill="#000000" stroke="#000000" points="206.2555,-205.718 209.7554,-215.7181 213.2555,-205.7181 206.2555,-205.718"/>
</g>
<!-- TemplateModule  -->
<g id="node15" class="node">
<title>TemplateModule </title>
<polygon fill="#fb8072" stroke="#000000" points="139.918,-252 24.082,-252 24.082,-216 139.918,-216 139.918,-252"/>
<text text-anchor="middle" x="82" y="-229.8" font-family="Times,serif" font-size="14.00" fill="#000000">TemplateModule </text>
</g>
<!-- JsonSchemaFormModule&#45;&gt;TemplateModule  -->
<g id="edge14" class="edge">
<title>JsonSchemaFormModule&#45;&gt;TemplateModule </title>
<path fill="none" stroke="#000000" stroke-dasharray="5,2" d="M403.0406,-173C287.5839,-173 87.875,-173 87.875,-173 87.875,-173 87.875,-205.698 87.875,-205.698"/>
<polygon fill="#000000" stroke="#000000" points="84.3751,-205.698 87.875,-215.698 91.3751,-205.698 84.3751,-205.698"/>
</g>
</g>
</svg>
