<?xml version="1.0" encoding="UTF-8" standalone="no"?>
<!DOCTYPE svg PUBLIC "-//W3C//DTD SVG 1.1//EN"
 "http://www.w3.org/Graphics/SVG/1.1/DTD/svg11.dtd">
<!-- Generated by graphviz version 2.40.1 (20161225.0304)
 -->
<!-- Title: dependencies Pages: 1 -->
<svg width="656pt" height="284pt"
 viewBox="0.00 0.00 656.00 284.00" xmlns="http://www.w3.org/2000/svg" xmlns:xlink="http://www.w3.org/1999/xlink">
<g id="graph0" class="graph" transform="scale(1 1) rotate(0) translate(4 280)">
<title>dependencies</title>
<polygon fill="#ffffff" stroke="transparent" points="-4,4 -4,-280 652,-280 652,4 -4,4"/>
<text text-anchor="start" x="303.0091" y="-42.4" font-family="sans-serif" font-weight="bold" font-size="14.00" fill="#000000">Legend</text>
<polygon fill="#ffffb3" stroke="transparent" points="90,-10 90,-30 110,-30 110,-10 90,-10"/>
<text text-anchor="start" x="113.629" y="-15.4" font-family="sans-serif" font-size="14.00" fill="#000000"> &#160;Declarations</text>
<polygon fill="#8dd3c7" stroke="transparent" points="203,-10 203,-30 223,-30 223,-10 203,-10"/>
<text text-anchor="start" x="226.7251" y="-15.4" font-family="sans-serif" font-size="14.00" fill="#000000"> &#160;Module</text>
<polygon fill="#80b1d3" stroke="transparent" points="289,-10 289,-30 309,-30 309,-10 289,-10"/>
<text text-anchor="start" x="312.7812" y="-15.4" font-family="sans-serif" font-size="14.00" fill="#000000"> &#160;Bootstrap</text>
<polygon fill="#fdb462" stroke="transparent" points="386,-10 386,-30 406,-30 406,-10 386,-10"/>
<text text-anchor="start" x="409.6732" y="-15.4" font-family="sans-serif" font-size="14.00" fill="#000000"> &#160;Providers</text>
<polygon fill="#fb8072" stroke="transparent" points="482,-10 482,-30 502,-30 502,-10 482,-10"/>
<text text-anchor="start" x="505.7258" y="-15.4" font-family="sans-serif" font-size="14.00" fill="#000000"> &#160;Exports</text>
<g id="clust1" class="cluster">
<title>cluster_JsonSchemaFormModule</title>
<polygon fill="none" stroke="#000000" stroke-dasharray="1,5" points="8,-70 8,-268 640,-268 640,-70 8,-70"/>
</g>
<g id="clust3" class="cluster">
<title>cluster_JsonSchemaFormModule_imports</title>
<polygon fill="none" stroke="#000000" points="25,-78 25,-130 622,-130 622,-78 25,-78"/>
</g>
<g id="clust4" class="cluster">
<title>cluster_JsonSchemaFormModule_exports</title>
<polygon fill="none" stroke="#000000" points="16,-208 16,-260 632,-260 632,-208 16,-208"/>
</g>
<!-- ButtonModule -->
<g id="node1" class="node">
<title>ButtonModule</title>
<polygon fill="#8dd3c7" stroke="#000000" points="613.6682,-122 610.6682,-126 589.6682,-126 586.6682,-122 516.3318,-122 516.3318,-86 613.6682,-86 613.6682,-122"/>
<text text-anchor="middle" x="565" y="-99.8" font-family="Times,serif" font-size="14.00" fill="#000000">ButtonModule</text>
</g>
<!-- JsonSchemaFormModule -->
<g id="node6" class="node">
<title>JsonSchemaFormModule</title>
<polygon fill="#8dd3c7" stroke="#000000" points="428.5898,-187 425.5898,-191 404.5898,-191 401.5898,-187 269.4102,-187 269.4102,-151 428.5898,-151 428.5898,-187"/>
<text text-anchor="middle" x="349" y="-164.8" font-family="Times,serif" font-size="14.00" fill="#000000">JsonSchemaFormModule</text>
</g>
<!-- ButtonModule&#45;&gt;JsonSchemaFormModule -->
<g id="edge1" class="edge">
<title>ButtonModule&#45;&gt;JsonSchemaFormModule</title>
<path fill="none" stroke="#000000" d="M583.3613,-122.0225C583.3613,-139.3734 583.3613,-163 583.3613,-163 583.3613,-163 438.6711,-163 438.6711,-163"/>
<polygon fill="#000000" stroke="#000000" points="438.6711,-159.5001 428.6711,-163 438.671,-166.5001 438.6711,-159.5001"/>
</g>
<!-- CoreModule -->
<g id="node2" class="node">
<title>CoreModule</title>
<polygon fill="#8dd3c7" stroke="#000000" points="498.2619,-122 495.2619,-126 474.2619,-126 471.2619,-122 411.7381,-122 411.7381,-86 498.2619,-86 498.2619,-122"/>
<text text-anchor="middle" x="455" y="-99.8" font-family="Times,serif" font-size="14.00" fill="#000000">CoreModule</text>
</g>
<!-- CoreModule&#45;&gt;JsonSchemaFormModule -->
<g id="edge2" class="edge">
<title>CoreModule&#45;&gt;JsonSchemaFormModule</title>
<path fill="none" stroke="#000000" d="M420.0821,-122.1061C420.0821,-122.1061 420.0821,-140.991 420.0821,-140.991"/>
<polygon fill="#000000" stroke="#000000" points="416.5821,-140.9909 420.0821,-150.991 423.5821,-140.991 416.5821,-140.9909"/>
</g>
<!-- FormModule -->
<g id="node3" class="node">
<title>FormModule</title>
<polygon fill="#8dd3c7" stroke="#000000" points="393.8837,-122 390.8837,-126 369.8837,-126 366.8837,-122 304.1163,-122 304.1163,-86 393.8837,-86 393.8837,-122"/>
<text text-anchor="middle" x="349" y="-99.8" font-family="Times,serif" font-size="14.00" fill="#000000">FormModule</text>
</g>
<!-- FormModule&#45;&gt;JsonSchemaFormModule -->
<g id="edge3" class="edge">
<title>FormModule&#45;&gt;JsonSchemaFormModule</title>
<path fill="none" stroke="#000000" d="M349,-122.1061C349,-122.1061 349,-140.991 349,-140.991"/>
<polygon fill="#000000" stroke="#000000" points="345.5001,-140.9909 349,-150.991 352.5001,-140.991 345.5001,-140.9909"/>
</g>
<!-- HiddenModule -->
<g id="node4" class="node">
<title>HiddenModule</title>
<polygon fill="#8dd3c7" stroke="#000000" points="286.2619,-122 283.2619,-126 262.2619,-126 259.2619,-122 185.7381,-122 185.7381,-86 286.2619,-86 286.2619,-122"/>
<text text-anchor="middle" x="236" y="-99.8" font-family="Times,serif" font-size="14.00" fill="#000000">HiddenModule</text>
</g>
<!-- HiddenModule&#45;&gt;JsonSchemaFormModule -->
<g id="edge4" class="edge">
<title>HiddenModule&#45;&gt;JsonSchemaFormModule</title>
<path fill="none" stroke="#000000" d="M277.918,-122.1061C277.918,-122.1061 277.918,-140.991 277.918,-140.991"/>
<polygon fill="#000000" stroke="#000000" points="274.418,-140.9909 277.918,-150.991 281.418,-140.991 274.418,-140.9909"/>
</g>
<!-- SelectWidgetModule -->
<g id="node5" class="node">
<title>SelectWidgetModule</title>
<polygon fill="#8dd3c7" stroke="#000000" points="167.4678,-122 164.4678,-126 143.4678,-126 140.4678,-122 32.5322,-122 32.5322,-86 167.4678,-86 167.4678,-122"/>
<text text-anchor="middle" x="100" y="-99.8" font-family="Times,serif" font-size="14.00" fill="#000000">SelectWidgetModule</text>
</g>
<!-- SelectWidgetModule&#45;&gt;JsonSchemaFormModule -->
<g id="edge5" class="edge">
<title>SelectWidgetModule&#45;&gt;JsonSchemaFormModule</title>
<path fill="none" stroke="#000000" d="M118.9946,-122.0225C118.9946,-139.3734 118.9946,-163 118.9946,-163 118.9946,-163 259.2008,-163 259.2008,-163"/>
<polygon fill="#000000" stroke="#000000" points="259.2008,-166.5001 269.2008,-163 259.2008,-159.5001 259.2008,-166.5001"/>
</g>
<!-- ButtonModule  -->
<g id="node7" class="node">
<title>ButtonModule </title>
<polygon fill="#fb8072" stroke="#000000" points="623.6677,-252 522.3323,-252 522.3323,-216 623.6677,-216 623.6677,-252"/>
<text text-anchor="middle" x="573" y="-229.8" font-family="Times,serif" font-size="14.00" fill="#000000">ButtonModule </text>
</g>
<!-- JsonSchemaFormModule&#45;&gt;ButtonModule  -->
<g id="edge6" class="edge">
<title>JsonSchemaFormModule&#45;&gt;ButtonModule </title>
<path fill="none" stroke="#000000" stroke-dasharray="5,2" d="M428.7047,-175C485.8895,-175 552.8887,-175 552.8887,-175 552.8887,-175 552.8887,-205.9775 552.8887,-205.9775"/>
<polygon fill="#000000" stroke="#000000" points="549.3888,-205.9774 552.8887,-215.9775 556.3888,-205.9775 549.3888,-205.9774"/>
</g>
<!-- CoreModule  -->
<g id="node8" class="node">
<title>CoreModule </title>
<polygon fill="#fb8072" stroke="#000000" points="504.262,-252 413.738,-252 413.738,-216 504.262,-216 504.262,-252"/>
<text text-anchor="middle" x="459" y="-229.8" font-family="Times,serif" font-size="14.00" fill="#000000">CoreModule </text>
</g>
<!-- JsonSchemaFormModule&#45;&gt;CoreModule  -->
<g id="edge7" class="edge">
<title>JsonSchemaFormModule&#45;&gt;CoreModule </title>
<path fill="none" stroke="#000000" stroke-dasharray="5,2" d="M421.2071,-187.1061C421.2071,-187.1061 421.2071,-205.991 421.2071,-205.991"/>
<polygon fill="#000000" stroke="#000000" points="417.7071,-205.9909 421.2071,-215.991 424.7071,-205.991 417.7071,-205.9909"/>
</g>
<!-- FormModule  -->
<g id="node9" class="node">
<title>FormModule </title>
<polygon fill="#fb8072" stroke="#000000" points="395.8844,-252 302.1156,-252 302.1156,-216 395.8844,-216 395.8844,-252"/>
<text text-anchor="middle" x="349" y="-229.8" font-family="Times,serif" font-size="14.00" fill="#000000">FormModule </text>
</g>
<!-- JsonSchemaFormModule&#45;&gt;FormModule  -->
<g id="edge8" class="edge">
<title>JsonSchemaFormModule&#45;&gt;FormModule </title>
<path fill="none" stroke="#000000" stroke-dasharray="5,2" d="M349,-187.1061C349,-187.1061 349,-205.991 349,-205.991"/>
<polygon fill="#000000" stroke="#000000" points="345.5001,-205.9909 349,-215.991 352.5001,-205.991 345.5001,-205.9909"/>
</g>
<!-- HiddenModule  -->
<g id="node10" class="node">
<title>HiddenModule </title>
<polygon fill="#fb8072" stroke="#000000" points="284.2619,-252 179.7381,-252 179.7381,-216 284.2619,-216 284.2619,-252"/>
<text text-anchor="middle" x="232" y="-229.8" font-family="Times,serif" font-size="14.00" fill="#000000">HiddenModule </text>
</g>
<!-- JsonSchemaFormModule&#45;&gt;HiddenModule  -->
<g id="edge9" class="edge">
<title>JsonSchemaFormModule&#45;&gt;HiddenModule </title>
<path fill="none" stroke="#000000" stroke-dasharray="5,2" d="M276.793,-187.1061C276.793,-187.1061 276.793,-205.991 276.793,-205.991"/>
<polygon fill="#000000" stroke="#000000" points="273.293,-205.9909 276.793,-215.991 280.293,-205.991 273.293,-205.9909"/>
</g>
<!-- SelectWidgetModule  -->
<g id="node11" class="node">
<title>SelectWidgetModule </title>
<polygon fill="#fb8072" stroke="#000000" points="162.4686,-252 23.5314,-252 23.5314,-216 162.4686,-216 162.4686,-252"/>
<text text-anchor="middle" x="93" y="-229.8" font-family="Times,serif" font-size="14.00" fill="#000000">SelectWidgetModule </text>
</g>
<!-- JsonSchemaFormModule&#45;&gt;SelectWidgetModule  -->
<g id="edge10" class="edge">
<title>JsonSchemaFormModule&#45;&gt;SelectWidgetModule </title>
<path fill="none" stroke="#000000" stroke-dasharray="5,2" d="M269.2318,-175C188.5799,-175 75.7554,-175 75.7554,-175 75.7554,-175 75.7554,-205.9775 75.7554,-205.9775"/>
<polygon fill="#000000" stroke="#000000" points="72.2553,-205.9775 75.7554,-215.9775 79.2553,-205.9774 72.2553,-205.9775"/>
</g>
</g>
</svg>
