<?xml version="1.0" encoding="UTF-8" standalone="no"?>
<!DOCTYPE svg PUBLIC "-//W3C//DTD SVG 1.1//EN"
 "http://www.w3.org/Graphics/SVG/1.1/DTD/svg11.dtd">
<!-- Generated by graphviz version 2.40.1 (20161225.0304)
 -->
<!-- Title: dependencies Pages: 1 -->
<svg width="504pt" height="284pt"
 viewBox="0.00 0.00 504.00 284.00" xmlns="http://www.w3.org/2000/svg" xmlns:xlink="http://www.w3.org/1999/xlink">
<g id="graph0" class="graph" transform="scale(1 1) rotate(0) translate(4 280)">
<title>dependencies</title>
<polygon fill="#ffffff" stroke="transparent" points="-4,4 -4,-280 500,-280 500,4 -4,4"/>
<text text-anchor="start" x="227.0091" y="-42.4" font-family="sans-serif" font-weight="bold" font-size="14.00" fill="#000000">Legend</text>
<polygon fill="#ffffb3" stroke="transparent" points="14,-10 14,-30 34,-30 34,-10 14,-10"/>
<text text-anchor="start" x="37.629" y="-15.4" font-family="sans-serif" font-size="14.00" fill="#000000"> &#160;Declarations</text>
<polygon fill="#8dd3c7" stroke="transparent" points="127,-10 127,-30 147,-30 147,-10 127,-10"/>
<text text-anchor="start" x="150.7251" y="-15.4" font-family="sans-serif" font-size="14.00" fill="#000000"> &#160;Module</text>
<polygon fill="#80b1d3" stroke="transparent" points="213,-10 213,-30 233,-30 233,-10 213,-10"/>
<text text-anchor="start" x="236.7812" y="-15.4" font-family="sans-serif" font-size="14.00" fill="#000000"> &#160;Bootstrap</text>
<polygon fill="#fdb462" stroke="transparent" points="310,-10 310,-30 330,-30 330,-10 310,-10"/>
<text text-anchor="start" x="333.6732" y="-15.4" font-family="sans-serif" font-size="14.00" fill="#000000"> &#160;Providers</text>
<polygon fill="#fb8072" stroke="transparent" points="406,-10 406,-30 426,-30 426,-10 406,-10"/>
<text text-anchor="start" x="429.7258" y="-15.4" font-family="sans-serif" font-size="14.00" fill="#000000"> &#160;Exports</text>
<g id="clust1" class="cluster">
<title>cluster_WidgetLibraryModule</title>
<polygon fill="none" stroke="#000000" stroke-dasharray="1,5" points="10,-70 10,-268 486,-268 486,-70 10,-70"/>
</g>
<g id="clust2" class="cluster">
<title>cluster_WidgetLibraryModule_declarations</title>
<polygon fill="none" stroke="#000000" points="23,-78 23,-130 474,-130 474,-78 23,-78"/>
</g>
<g id="clust7" class="cluster">
<title>cluster_WidgetLibraryModule_exports</title>
<polygon fill="none" stroke="#000000" points="18,-208 18,-260 478,-260 478,-208 18,-208"/>
</g>
<!-- ButtonComponent -->
<g id="node1" class="node">
<title>ButtonComponent</title>
<polygon fill="#ffffb3" stroke="#000000" points="465.9511,-122 346.0489,-122 346.0489,-86 465.9511,-86 465.9511,-122"/>
<text text-anchor="middle" x="406" y="-99.8" font-family="Times,serif" font-size="14.00" fill="#000000">ButtonComponent</text>
</g>
<!-- WidgetLibraryModule -->
<g id="node4" class="node">
<title>WidgetLibraryModule</title>
<polygon fill="#8dd3c7" stroke="#000000" points="338.2394,-187 335.2394,-191 314.2394,-191 311.2394,-187 195.7606,-187 195.7606,-151 338.2394,-151 338.2394,-187"/>
<text text-anchor="middle" x="267" y="-164.8" font-family="Times,serif" font-size="14.00" fill="#000000">WidgetLibraryModule</text>
</g>
<!-- ButtonComponent&#45;&gt;WidgetLibraryModule -->
<g id="edge1" class="edge">
<title>ButtonComponent&#45;&gt;WidgetLibraryModule</title>
<path fill="none" stroke="#000000" d="M345.9806,-104C338.4488,-104 333.3209,-104 333.3209,-104 333.3209,-104 333.3209,-140.8939 333.3209,-140.8939"/>
<polygon fill="#000000" stroke="#000000" points="329.8209,-140.8938 333.3209,-150.8939 336.8209,-140.8939 329.8209,-140.8938"/>
</g>
<!-- HiddenComponent -->
<g id="node2" class="node">
<title>HiddenComponent</title>
<polygon fill="#ffffb3" stroke="#000000" points="328.045,-122 205.955,-122 205.955,-86 328.045,-86 328.045,-122"/>
<text text-anchor="middle" x="267" y="-99.8" font-family="Times,serif" font-size="14.00" fill="#000000">HiddenComponent</text>
</g>
<!-- HiddenComponent&#45;&gt;WidgetLibraryModule -->
<g id="edge2" class="edge">
<title>HiddenComponent&#45;&gt;WidgetLibraryModule</title>
<path fill="none" stroke="#000000" d="M267,-122.1061C267,-122.1061 267,-140.991 267,-140.991"/>
<polygon fill="#000000" stroke="#000000" points="263.5001,-140.9909 267,-150.991 270.5001,-140.991 263.5001,-140.9909"/>
</g>
<!-- SelectWidgetComponent -->
<g id="node3" class="node">
<title>SelectWidgetComponent</title>
<polygon fill="#ffffb3" stroke="#000000" points="187.2506,-122 30.7494,-122 30.7494,-86 187.2506,-86 187.2506,-122"/>
<text text-anchor="middle" x="109" y="-99.8" font-family="Times,serif" font-size="14.00" fill="#000000">SelectWidgetComponent</text>
</g>
<!-- SelectWidgetComponent&#45;&gt;WidgetLibraryModule -->
<g id="edge3" class="edge">
<title>SelectWidgetComponent&#45;&gt;WidgetLibraryModule</title>
<path fill="none" stroke="#000000" d="M187.5438,-104C195.4738,-104 200.6792,-104 200.6792,-104 200.6792,-104 200.6792,-140.8939 200.6792,-140.8939"/>
<polygon fill="#000000" stroke="#000000" points="197.1792,-140.8938 200.6792,-150.8939 204.1792,-140.8939 197.1792,-140.8938"/>
</g>
<!-- ButtonComponent  -->
<g id="node5" class="node">
<title>ButtonComponent </title>
<polygon fill="#fb8072" stroke="#000000" points="470.4502,-252 347.5498,-252 347.5498,-216 470.4502,-216 470.4502,-252"/>
<text text-anchor="middle" x="409" y="-229.8" font-family="Times,serif" font-size="14.00" fill="#000000">ButtonComponent </text>
</g>
<!-- WidgetLibraryModule&#45;&gt;ButtonComponent  -->
<g id="edge4" class="edge">
<title>WidgetLibraryModule&#45;&gt;ButtonComponent </title>
<path fill="none" stroke="#000000" stroke-dasharray="5,2" d="M334.1959,-187.1061C334.1959,-206.3391 334.1959,-234 334.1959,-234 334.1959,-234 337.2257,-234 337.2257,-234"/>
<polygon fill="#000000" stroke="#000000" points="337.2258,-237.5001 347.2257,-234 337.2257,-230.5001 337.2258,-237.5001"/>
</g>
<!-- HiddenComponent  -->
<g id="node6" class="node">
<title>HiddenComponent </title>
<polygon fill="#fb8072" stroke="#000000" points="330.0442,-252 203.9558,-252 203.9558,-216 330.0442,-216 330.0442,-252"/>
<text text-anchor="middle" x="267" y="-229.8" font-family="Times,serif" font-size="14.00" fill="#000000">HiddenComponent </text>
</g>
<!-- WidgetLibraryModule&#45;&gt;HiddenComponent  -->
<g id="edge5" class="edge">
<title>WidgetLibraryModule&#45;&gt;HiddenComponent </title>
<path fill="none" stroke="#000000" stroke-dasharray="5,2" d="M267,-187.1061C267,-187.1061 267,-205.991 267,-205.991"/>
<polygon fill="#000000" stroke="#000000" points="263.5001,-205.9909 267,-215.991 270.5001,-205.991 263.5001,-205.9909"/>
</g>
<!-- SelectWidgetComponent  -->
<g id="node7" class="node">
<title>SelectWidgetComponent </title>
<polygon fill="#fb8072" stroke="#000000" points="186.2506,-252 25.7494,-252 25.7494,-216 186.2506,-216 186.2506,-252"/>
<text text-anchor="middle" x="106" y="-229.8" font-family="Times,serif" font-size="14.00" fill="#000000">SelectWidgetComponent </text>
</g>
<!-- WidgetLibraryModule&#45;&gt;SelectWidgetComponent  -->
<g id="edge6" class="edge">
<title>WidgetLibraryModule&#45;&gt;SelectWidgetComponent </title>
<path fill="none" stroke="#000000" stroke-dasharray="5,2" d="M199.8042,-187.1061C199.8042,-206.3391 199.8042,-234 199.8042,-234 199.8042,-234 196.3643,-234 196.3643,-234"/>
<polygon fill="#000000" stroke="#000000" points="196.3643,-230.5001 186.3643,-234 196.3643,-237.5001 196.3643,-230.5001"/>
</g>
</g>
</svg>
