<?xml version="1.0" encoding="UTF-8" standalone="no"?>
<!DOCTYPE svg PUBLIC "-//W3C//DTD SVG 1.1//EN"
 "http://www.w3.org/Graphics/SVG/1.1/DTD/svg11.dtd">
<!-- Generated by graphviz version 2.40.1 (20161225.0304)
 -->
<!-- Title: dependencies Pages: 1 -->
<svg width="1742pt" height="358pt"
 viewBox="0.00 0.00 1742.00 358.00" xmlns="http://www.w3.org/2000/svg" xmlns:xlink="http://www.w3.org/1999/xlink">
<g id="graph0" class="graph" transform="scale(1 1) rotate(0) translate(4 354)">
<title>dependencies</title>
<polygon fill="#ffffff" stroke="transparent" points="-4,4 -4,-354 1738,-354 1738,4 -4,4"/>
<text text-anchor="start" x="846.0091" y="-42.4" font-family="sans-serif" font-weight="bold" font-size="14.00" fill="#000000">Legend</text>
<polygon fill="#ffffb3" stroke="transparent" points="633,-10 633,-30 653,-30 653,-10 633,-10"/>
<text text-anchor="start" x="656.629" y="-15.4" font-family="sans-serif" font-size="14.00" fill="#000000"> &#160;Declarations</text>
<polygon fill="#8dd3c7" stroke="transparent" points="746,-10 746,-30 766,-30 766,-10 746,-10"/>
<text text-anchor="start" x="769.7251" y="-15.4" font-family="sans-serif" font-size="14.00" fill="#000000"> &#160;Module</text>
<polygon fill="#80b1d3" stroke="transparent" points="832,-10 832,-30 852,-30 852,-10 832,-10"/>
<text text-anchor="start" x="855.7812" y="-15.4" font-family="sans-serif" font-size="14.00" fill="#000000"> &#160;Bootstrap</text>
<polygon fill="#fdb462" stroke="transparent" points="929,-10 929,-30 949,-30 949,-10 929,-10"/>
<text text-anchor="start" x="952.6732" y="-15.4" font-family="sans-serif" font-size="14.00" fill="#000000"> &#160;Providers</text>
<polygon fill="#fb8072" stroke="transparent" points="1025,-10 1025,-30 1045,-30 1045,-10 1025,-10"/>
<text text-anchor="start" x="1048.7258" y="-15.4" font-family="sans-serif" font-size="14.00" fill="#000000"> &#160;Exports</text>
<g id="clust1" class="cluster">
<title>cluster_ButtonModule</title>
<polygon fill="none" stroke="#000000" stroke-dasharray="1,5" points="8,-70 8,-274 162,-274 162,-70 8,-70"/>
</g>
<g id="clust2" class="cluster">
<title>cluster_ButtonModule_declarations</title>
<polygon fill="none" stroke="#000000" points="17,-78 17,-130 153,-130 153,-78 17,-78"/>
</g>
<g id="clust5" class="cluster">
<title>cluster_ButtonModule_exports</title>
<polygon fill="none" stroke="#000000" points="16,-214 16,-266 154,-266 154,-214 16,-214"/>
</g>
<g id="clust14" class="cluster">
<title>cluster_FormModule</title>
<polygon fill="none" stroke="#000000" stroke-dasharray="1,5" points="1190,-70 1190,-274 1560,-274 1560,-70 1190,-70"/>
</g>
<g id="clust15" class="cluster">
<title>cluster_FormModule_declarations</title>
<polygon fill="none" stroke="#000000" points="1356,-78 1356,-130 1552,-130 1552,-78 1356,-78"/>
</g>
<g id="clust17" class="cluster">
<title>cluster_FormModule_imports</title>
<polygon fill="none" stroke="#000000" points="1198,-78 1198,-130 1348,-130 1348,-78 1198,-78"/>
</g>
<g id="clust18" class="cluster">
<title>cluster_FormModule_exports</title>
<polygon fill="none" stroke="#000000" points="1198,-214 1198,-266 1398,-266 1398,-214 1198,-214"/>
</g>
<g id="clust21" class="cluster">
<title>cluster_HiddenModule</title>
<polygon fill="none" stroke="#000000" stroke-dasharray="1,5" points="1568,-70 1568,-274 1726,-274 1726,-70 1568,-70"/>
</g>
<g id="clust22" class="cluster">
<title>cluster_HiddenModule_declarations</title>
<polygon fill="none" stroke="#000000" points="1577,-78 1577,-130 1715,-130 1715,-78 1577,-78"/>
</g>
<g id="clust25" class="cluster">
<title>cluster_HiddenModule_exports</title>
<polygon fill="none" stroke="#000000" points="1576,-214 1576,-266 1718,-266 1718,-214 1576,-214"/>
</g>
<g id="clust28" class="cluster">
<title>cluster_JsonSchemaFormModule</title>
<polygon fill="none" stroke="#000000" stroke-dasharray="1,5" points="170,-138 170,-342 802,-342 802,-138 170,-138"/>
</g>
<g id="clust30" class="cluster">
<title>cluster_JsonSchemaFormModule_imports</title>
<polygon fill="none" stroke="#000000" points="641,-146 641,-198 743,-198 743,-146 641,-146"/>
</g>
<g id="clust31" class="cluster">
<title>cluster_JsonSchemaFormModule_exports</title>
<polygon fill="none" stroke="#000000" points="178,-282 178,-334 794,-334 794,-282 178,-282"/>
</g>
<g id="clust34" class="cluster">
<title>cluster_SelectWidgetModule</title>
<polygon fill="none" stroke="#000000" stroke-dasharray="1,5" points="810,-138 810,-206 1182,-206 1182,-138 810,-138"/>
</g>
<g id="clust35" class="cluster">
<title>cluster_SelectWidgetModule_declarations</title>
<polygon fill="none" stroke="#000000" points="1002,-146 1002,-198 1174,-198 1174,-146 1002,-146"/>
</g>
<g id="clust38" class="cluster">
<title>cluster_SelectWidgetModule_exports</title>
<polygon fill="none" stroke="#000000" points="818,-146 818,-198 994,-198 994,-146 818,-146"/>
</g>
<!-- ButtonComponent -->
<g id="node1" class="node">
<title>ButtonComponent</title>
<polygon fill="#ffffb3" stroke="#000000" points="144.9511,-122 25.0489,-122 25.0489,-86 144.9511,-86 144.9511,-122"/>
<text text-anchor="middle" x="85" y="-99.8" font-family="Times,serif" font-size="14.00" fill="#000000">ButtonComponent</text>
</g>
<!-- ButtonModule -->
<g id="node2" class="node">
<title>ButtonModule</title>
<polygon fill="#8dd3c7" stroke="#000000" points="133.6682,-190 130.6682,-194 109.6682,-194 106.6682,-190 36.3318,-190 36.3318,-154 133.6682,-154 133.6682,-190"/>
<text text-anchor="middle" x="85" y="-167.8" font-family="Times,serif" font-size="14.00" fill="#000000">ButtonModule</text>
</g>
<!-- ButtonComponent&#45;&gt;ButtonModule -->
<g id="edge1" class="edge">
<title>ButtonComponent&#45;&gt;ButtonModule</title>
<path fill="none" stroke="#000000" d="M85,-122.2228C85,-122.2228 85,-143.7269 85,-143.7269"/>
<polygon fill="#000000" stroke="#000000" points="81.5001,-143.7269 85,-153.7269 88.5001,-143.727 81.5001,-143.7269"/>
</g>
<!-- ButtonComponent  -->
<g id="node3" class="node">
<title>ButtonComponent </title>
<polygon fill="#fb8072" stroke="#000000" points="146.4502,-258 23.5498,-258 23.5498,-222 146.4502,-222 146.4502,-258"/>
<text text-anchor="middle" x="85" y="-235.8" font-family="Times,serif" font-size="14.00" fill="#000000">ButtonComponent </text>
</g>
<!-- ButtonModule&#45;&gt;ButtonComponent  -->
<g id="edge2" class="edge">
<title>ButtonModule&#45;&gt;ButtonComponent </title>
<path fill="none" stroke="#000000" stroke-dasharray="5,2" d="M85,-190.2228C85,-190.2228 85,-211.7269 85,-211.7269"/>
<polygon fill="#000000" stroke="#000000" points="81.5001,-211.7269 85,-221.7269 88.5001,-211.727 81.5001,-211.7269"/>
</g>
<!-- JsonSchemaFormModule -->
<g id="node12" class="node">
<title>JsonSchemaFormModule</title>
<polygon fill="#8dd3c7" stroke="#000000" points="700.5898,-258 697.5898,-262 676.5898,-262 673.5898,-258 541.4102,-258 541.4102,-222 700.5898,-222 700.5898,-258"/>
<text text-anchor="middle" x="621" y="-235.8" font-family="Times,serif" font-size="14.00" fill="#000000">JsonSchemaFormModule</text>
</g>
<!-- ButtonModule&#45;&gt;JsonSchemaFormModule -->
<g id="edge8" class="edge">
<title>ButtonModule&#45;&gt;JsonSchemaFormModule</title>
<path fill="none" stroke="#000000" d="M133.9911,-172C258.4814,-172 577.1765,-172 577.1765,-172 577.1765,-172 577.1765,-211.7772 577.1765,-211.7772"/>
<polygon fill="#000000" stroke="#000000" points="573.6766,-211.7772 577.1765,-221.7772 580.6766,-211.7773 573.6766,-211.7772"/>
</g>
<!-- JsonSchemaFormComponent -->
<g id="node4" class="node">
<title>JsonSchemaFormComponent</title>
<polygon fill="#ffffb3" stroke="#000000" points="1544.3724,-122 1363.6276,-122 1363.6276,-86 1544.3724,-86 1544.3724,-122"/>
<text text-anchor="middle" x="1454" y="-99.8" font-family="Times,serif" font-size="14.00" fill="#000000">JsonSchemaFormComponent</text>
</g>
<!-- FormModule -->
<g id="node5" class="node">
<title>FormModule</title>
<polygon fill="#8dd3c7" stroke="#000000" points="1329.8837,-190 1326.8837,-194 1305.8837,-194 1302.8837,-190 1240.1163,-190 1240.1163,-154 1329.8837,-154 1329.8837,-190"/>
<text text-anchor="middle" x="1285" y="-167.8" font-family="Times,serif" font-size="14.00" fill="#000000">FormModule</text>
</g>
<!-- JsonSchemaFormComponent&#45;&gt;FormModule -->
<g id="edge3" class="edge">
<title>JsonSchemaFormComponent&#45;&gt;FormModule</title>
<path fill="none" stroke="#000000" d="M1376.875,-122.2228C1376.875,-142.3652 1376.875,-172 1376.875,-172 1376.875,-172 1340.13,-172 1340.13,-172"/>
<polygon fill="#000000" stroke="#000000" points="1340.1301,-168.5001 1330.13,-172 1340.13,-175.5001 1340.1301,-168.5001"/>
</g>
<!-- JsonSchemaFormComponent  -->
<g id="node7" class="node">
<title>JsonSchemaFormComponent </title>
<polygon fill="#fb8072" stroke="#000000" points="1390.3728,-258 1205.6272,-258 1205.6272,-222 1390.3728,-222 1390.3728,-258"/>
<text text-anchor="middle" x="1298" y="-235.8" font-family="Times,serif" font-size="14.00" fill="#000000">JsonSchemaFormComponent </text>
</g>
<!-- FormModule&#45;&gt;JsonSchemaFormComponent  -->
<g id="edge5" class="edge">
<title>FormModule&#45;&gt;JsonSchemaFormComponent </title>
<path fill="none" stroke="#000000" stroke-dasharray="5,2" d="M1285,-190.2228C1285,-190.2228 1285,-211.7269 1285,-211.7269"/>
<polygon fill="#000000" stroke="#000000" points="1281.5001,-211.7269 1285,-221.7269 1288.5001,-211.727 1281.5001,-211.7269"/>
</g>
<!-- FormModule&#45;&gt;JsonSchemaFormModule -->
<g id="edge10" class="edge">
<title>FormModule&#45;&gt;JsonSchemaFormModule</title>
<path fill="none" stroke="#000000" d="M1240.11,-178C1213.9014,-178 1185.9457,-178 1185.9457,-178 1185.9457,-178 1185.9457,-240 1185.9457,-240 1185.9457,-240 710.7447,-240 710.7447,-240"/>
<polygon fill="#000000" stroke="#000000" points="710.7447,-236.5001 700.7447,-240 710.7447,-243.5001 710.7447,-236.5001"/>
</g>
<!-- SelectWidgetModule -->
<g id="node6" class="node">
<title>SelectWidgetModule</title>
<polygon fill="#8dd3c7" stroke="#000000" points="1340.4678,-122 1337.4678,-126 1316.4678,-126 1313.4678,-122 1205.5322,-122 1205.5322,-86 1340.4678,-86 1340.4678,-122"/>
<text text-anchor="middle" x="1273" y="-99.8" font-family="Times,serif" font-size="14.00" fill="#000000">SelectWidgetModule</text>
</g>
<!-- SelectWidgetModule&#45;&gt;FormModule -->
<g id="edge4" class="edge">
<title>SelectWidgetModule&#45;&gt;FormModule</title>
<path fill="none" stroke="#000000" d="M1285,-122.2228C1285,-122.2228 1285,-143.7269 1285,-143.7269"/>
<polygon fill="#000000" stroke="#000000" points="1281.5001,-143.7269 1285,-153.7269 1288.5001,-143.727 1281.5001,-143.7269"/>
</g>
<!-- SelectWidgetModule&#45;&gt;JsonSchemaFormModule -->
<g id="edge12" class="edge">
<title>SelectWidgetModule&#45;&gt;JsonSchemaFormModule</title>
<path fill="none" stroke="#000000" d="M1205.4596,-98C1037.2218,-98 612.8978,-98 612.8978,-98 612.8978,-98 612.8978,-211.7267 612.8978,-211.7267"/>
<polygon fill="#000000" stroke="#000000" points="609.3979,-211.7267 612.8978,-221.7267 616.3979,-211.7267 609.3979,-211.7267"/>
</g>
<!-- SelectWidgetComponent  -->
<g id="node19" class="node">
<title>SelectWidgetComponent </title>
<polygon fill="#fb8072" stroke="#000000" points="986.2506,-190 825.7494,-190 825.7494,-154 986.2506,-154 986.2506,-190"/>
<text text-anchor="middle" x="906" y="-167.8" font-family="Times,serif" font-size="14.00" fill="#000000">SelectWidgetComponent </text>
</g>
<!-- SelectWidgetModule&#45;&gt;SelectWidgetComponent  -->
<g id="edge19" class="edge">
<title>SelectWidgetModule&#45;&gt;SelectWidgetComponent </title>
<path fill="none" stroke="#000000" stroke-dasharray="5,2" d="M1205.2589,-110C1099.2163,-110 906,-110 906,-110 906,-110 906,-143.7333 906,-143.7333"/>
<polygon fill="#000000" stroke="#000000" points="902.5001,-143.7333 906,-153.7333 909.5001,-143.7333 902.5001,-143.7333"/>
</g>
<!-- HiddenComponent -->
<g id="node8" class="node">
<title>HiddenComponent</title>
<polygon fill="#ffffb3" stroke="#000000" points="1707.045,-122 1584.955,-122 1584.955,-86 1707.045,-86 1707.045,-122"/>
<text text-anchor="middle" x="1646" y="-99.8" font-family="Times,serif" font-size="14.00" fill="#000000">HiddenComponent</text>
</g>
<!-- HiddenModule -->
<g id="node9" class="node">
<title>HiddenModule</title>
<polygon fill="#8dd3c7" stroke="#000000" points="1696.2619,-190 1693.2619,-194 1672.2619,-194 1669.2619,-190 1595.7381,-190 1595.7381,-154 1696.2619,-154 1696.2619,-190"/>
<text text-anchor="middle" x="1646" y="-167.8" font-family="Times,serif" font-size="14.00" fill="#000000">HiddenModule</text>
</g>
<!-- HiddenComponent&#45;&gt;HiddenModule -->
<g id="edge6" class="edge">
<title>HiddenComponent&#45;&gt;HiddenModule</title>
<path fill="none" stroke="#000000" d="M1646,-122.2228C1646,-122.2228 1646,-143.7269 1646,-143.7269"/>
<polygon fill="#000000" stroke="#000000" points="1642.5001,-143.7269 1646,-153.7269 1649.5001,-143.727 1642.5001,-143.7269"/>
</g>
<!-- HiddenComponent  -->
<g id="node10" class="node">
<title>HiddenComponent </title>
<polygon fill="#fb8072" stroke="#000000" points="1710.0442,-258 1583.9558,-258 1583.9558,-222 1710.0442,-222 1710.0442,-258"/>
<text text-anchor="middle" x="1647" y="-235.8" font-family="Times,serif" font-size="14.00" fill="#000000">HiddenComponent </text>
</g>
<!-- HiddenModule&#45;&gt;HiddenComponent  -->
<g id="edge7" class="edge">
<title>HiddenModule&#45;&gt;HiddenComponent </title>
<path fill="none" stroke="#000000" stroke-dasharray="5,2" d="M1662.7936,-190.2228C1662.7936,-190.2228 1662.7936,-211.7269 1662.7936,-211.7269"/>
<polygon fill="#000000" stroke="#000000" points="1659.2937,-211.7269 1662.7936,-221.7269 1666.2937,-211.727 1659.2937,-211.7269"/>
</g>
<!-- HiddenModule&#45;&gt;JsonSchemaFormModule -->
<g id="edge11" class="edge">
<title>HiddenModule&#45;&gt;JsonSchemaFormModule</title>
<path fill="none" stroke="#000000" d="M1629.2064,-190.1944C1629.2064,-198.2782 1629.2064,-206 1629.2064,-206 1629.2064,-206 683.2363,-206 683.2363,-206 683.2363,-206 683.2363,-211.8056 683.2363,-211.8056"/>
<polygon fill="#000000" stroke="#000000" points="679.7364,-211.8055 683.2363,-221.8056 686.7364,-211.8056 679.7364,-211.8055"/>
</g>
<!-- CoreModule -->
<g id="node11" class="node">
<title>CoreModule</title>
<polygon fill="#8dd3c7" stroke="#000000" points="735.2619,-190 732.2619,-194 711.2619,-194 708.2619,-190 648.7381,-190 648.7381,-154 735.2619,-154 735.2619,-190"/>
<text text-anchor="middle" x="692" y="-167.8" font-family="Times,serif" font-size="14.00" fill="#000000">CoreModule</text>
</g>
<!-- CoreModule&#45;&gt;JsonSchemaFormModule -->
<g id="edge9" class="edge">
<title>CoreModule&#45;&gt;JsonSchemaFormModule</title>
<path fill="none" stroke="#000000" d="M665.9278,-190.2228C665.9278,-190.2228 665.9278,-211.7269 665.9278,-211.7269"/>
<polygon fill="#000000" stroke="#000000" points="662.4279,-211.7269 665.9278,-221.7269 669.4279,-211.727 662.4279,-211.7269"/>
</g>
<!-- ButtonModule  -->
<g id="node13" class="node">
<title>ButtonModule </title>
<polygon fill="#fb8072" stroke="#000000" points="785.6677,-326 684.3323,-326 684.3323,-290 785.6677,-290 785.6677,-326"/>
<text text-anchor="middle" x="735" y="-303.8" font-family="Times,serif" font-size="14.00" fill="#000000">ButtonModule </text>
</g>
<!-- JsonSchemaFormModule&#45;&gt;ButtonModule  -->
<g id="edge13" class="edge">
<title>JsonSchemaFormModule&#45;&gt;ButtonModule </title>
<path fill="none" stroke="#000000" stroke-dasharray="5,2" d="M692.4806,-258.2228C692.4806,-258.2228 692.4806,-279.7269 692.4806,-279.7269"/>
<polygon fill="#000000" stroke="#000000" points="688.9806,-279.7269 692.4806,-289.7269 695.9806,-279.727 688.9806,-279.7269"/>
</g>
<!-- CoreModule  -->
<g id="node14" class="node">
<title>CoreModule </title>
<polygon fill="#fb8072" stroke="#000000" points="666.262,-326 575.738,-326 575.738,-290 666.262,-290 666.262,-326"/>
<text text-anchor="middle" x="621" y="-303.8" font-family="Times,serif" font-size="14.00" fill="#000000">CoreModule </text>
</g>
<!-- JsonSchemaFormModule&#45;&gt;CoreModule  -->
<g id="edge14" class="edge">
<title>JsonSchemaFormModule&#45;&gt;CoreModule </title>
<path fill="none" stroke="#000000" stroke-dasharray="5,2" d="M621,-258.2228C621,-258.2228 621,-279.7269 621,-279.7269"/>
<polygon fill="#000000" stroke="#000000" points="617.5001,-279.7269 621,-289.7269 624.5001,-279.727 617.5001,-279.7269"/>
</g>
<!-- FormModule  -->
<g id="node15" class="node">
<title>FormModule </title>
<polygon fill="#fb8072" stroke="#000000" points="557.8844,-326 464.1156,-326 464.1156,-290 557.8844,-290 557.8844,-326"/>
<text text-anchor="middle" x="511" y="-303.8" font-family="Times,serif" font-size="14.00" fill="#000000">FormModule </text>
</g>
<!-- JsonSchemaFormModule&#45;&gt;FormModule  -->
<g id="edge15" class="edge">
<title>JsonSchemaFormModule&#45;&gt;FormModule </title>
<path fill="none" stroke="#000000" stroke-dasharray="5,2" d="M549.5735,-258.2228C549.5735,-258.2228 549.5735,-279.7269 549.5735,-279.7269"/>
<polygon fill="#000000" stroke="#000000" points="546.0735,-279.7269 549.5735,-289.7269 553.0735,-279.727 546.0735,-279.7269"/>
</g>
<!-- HiddenModule  -->
<g id="node16" class="node">
<title>HiddenModule </title>
<polygon fill="#fb8072" stroke="#000000" points="446.2619,-326 341.7381,-326 341.7381,-290 446.2619,-290 446.2619,-326"/>
<text text-anchor="middle" x="394" y="-303.8" font-family="Times,serif" font-size="14.00" fill="#000000">HiddenModule </text>
</g>
<!-- JsonSchemaFormModule&#45;&gt;HiddenModule  -->
<g id="edge16" class="edge">
<title>JsonSchemaFormModule&#45;&gt;HiddenModule </title>
<path fill="none" stroke="#000000" stroke-dasharray="5,2" d="M541.2875,-246C475.8797,-246 394,-246 394,-246 394,-246 394,-279.7333 394,-279.7333"/>
<polygon fill="#000000" stroke="#000000" points="390.5001,-279.7333 394,-289.7333 397.5001,-279.7333 390.5001,-279.7333"/>
</g>
<!-- SelectWidgetModule  -->
<g id="node17" class="node">
<title>SelectWidgetModule </title>
<polygon fill="#fb8072" stroke="#000000" points="324.4686,-326 185.5314,-326 185.5314,-290 324.4686,-290 324.4686,-326"/>
<text text-anchor="middle" x="255" y="-303.8" font-family="Times,serif" font-size="14.00" fill="#000000">SelectWidgetModule </text>
</g>
<!-- JsonSchemaFormModule&#45;&gt;SelectWidgetModule  -->
<g id="edge17" class="edge">
<title>JsonSchemaFormModule&#45;&gt;SelectWidgetModule </title>
<path fill="none" stroke="#000000" stroke-dasharray="5,2" d="M541.132,-234C433.4404,-234 255,-234 255,-234 255,-234 255,-279.7079 255,-279.7079"/>
<polygon fill="#000000" stroke="#000000" points="251.5001,-279.7078 255,-289.7079 258.5001,-279.7079 251.5001,-279.7078"/>
</g>
<!-- SelectWidgetComponent -->
<g id="node18" class="node">
<title>SelectWidgetComponent</title>
<polygon fill="#ffffb3" stroke="#000000" points="1166.2506,-190 1009.7494,-190 1009.7494,-154 1166.2506,-154 1166.2506,-190"/>
<text text-anchor="middle" x="1088" y="-167.8" font-family="Times,serif" font-size="14.00" fill="#000000">SelectWidgetComponent</text>
</g>
<!-- SelectWidgetComponent&#45;&gt;SelectWidgetModule -->
<g id="edge18" class="edge">
<title>SelectWidgetComponent&#45;&gt;SelectWidgetModule</title>
<path fill="none" stroke="#000000" d="M1166.4928,-166C1196.1778,-166 1222.936,-166 1222.936,-166 1222.936,-166 1222.936,-132.2667 1222.936,-132.2667"/>
<polygon fill="#000000" stroke="#000000" points="1226.4361,-132.2667 1222.936,-122.2667 1219.4361,-132.2667 1226.4361,-132.2667"/>
</g>
</g>
</svg>
