<?xml version="1.0" encoding="UTF-8" standalone="no"?>
<!DOCTYPE svg PUBLIC "-//W3C//DTD SVG 1.1//EN"
 "http://www.w3.org/Graphics/SVG/1.1/DTD/svg11.dtd">
<!-- Generated by graphviz version 2.40.1 (20161225.0304)
 -->
<!-- Title: dependencies Pages: 1 -->
<svg width="2556pt" height="366pt"
 viewBox="0.00 0.00 2556.00 366.00" xmlns="http://www.w3.org/2000/svg" xmlns:xlink="http://www.w3.org/1999/xlink">
<g id="graph0" class="graph" transform="scale(1 1) rotate(0) translate(4 362)">
<title>dependencies</title>
<polygon fill="#ffffff" stroke="transparent" points="-4,4 -4,-362 2552,-362 2552,4 -4,4"/>
<text text-anchor="start" x="1253.0091" y="-42.4" font-family="sans-serif" font-weight="bold" font-size="14.00" fill="#000000">Legend</text>
<polygon fill="#ffffb3" stroke="transparent" points="1040,-10 1040,-30 1060,-30 1060,-10 1040,-10"/>
<text text-anchor="start" x="1063.629" y="-15.4" font-family="sans-serif" font-size="14.00" fill="#000000"> &#160;Declarations</text>
<polygon fill="#8dd3c7" stroke="transparent" points="1153,-10 1153,-30 1173,-30 1173,-10 1153,-10"/>
<text text-anchor="start" x="1176.7251" y="-15.4" font-family="sans-serif" font-size="14.00" fill="#000000"> &#160;Module</text>
<polygon fill="#80b1d3" stroke="transparent" points="1239,-10 1239,-30 1259,-30 1259,-10 1239,-10"/>
<text text-anchor="start" x="1262.7812" y="-15.4" font-family="sans-serif" font-size="14.00" fill="#000000"> &#160;Bootstrap</text>
<polygon fill="#fdb462" stroke="transparent" points="1336,-10 1336,-30 1356,-30 1356,-10 1336,-10"/>
<text text-anchor="start" x="1359.6732" y="-15.4" font-family="sans-serif" font-size="14.00" fill="#000000"> &#160;Providers</text>
<polygon fill="#fb8072" stroke="transparent" points="1432,-10 1432,-30 1452,-30 1452,-10 1432,-10"/>
<text text-anchor="start" x="1455.7258" y="-15.4" font-family="sans-serif" font-size="14.00" fill="#000000"> &#160;Exports</text>
<g id="clust1" class="cluster">
<title>cluster_ButtonModule</title>
<polygon fill="none" stroke="#000000" stroke-dasharray="1,5" points="8,-70 8,-282 162,-282 162,-70 8,-70"/>
</g>
<g id="clust2" class="cluster">
<title>cluster_ButtonModule_declarations</title>
<polygon fill="none" stroke="#000000" points="17,-78 17,-130 153,-130 153,-78 17,-78"/>
</g>
<g id="clust5" class="cluster">
<title>cluster_ButtonModule_exports</title>
<polygon fill="none" stroke="#000000" points="16,-222 16,-274 154,-274 154,-222 16,-222"/>
</g>
<g id="clust8" class="cluster">
<title>cluster_ContainerModule</title>
<polygon fill="none" stroke="#000000" stroke-dasharray="1,5" points="170,-70 170,-282 496,-282 496,-70 170,-70"/>
</g>
<g id="clust9" class="cluster">
<title>cluster_ContainerModule_declarations</title>
<polygon fill="none" stroke="#000000" points="178,-78 178,-130 330,-130 330,-78 178,-78"/>
</g>
<g id="clust11" class="cluster">
<title>cluster_ContainerModule_imports</title>
<polygon fill="none" stroke="#000000" points="338,-78 338,-130 488,-130 488,-78 338,-78"/>
</g>
<g id="clust12" class="cluster">
<title>cluster_ContainerModule_exports</title>
<polygon fill="none" stroke="#000000" points="332,-222 332,-274 488,-274 488,-222 332,-222"/>
</g>
<g id="clust21" class="cluster">
<title>cluster_FormModule</title>
<polygon fill="none" stroke="#000000" stroke-dasharray="1,5" points="2158,-70 2158,-282 2374,-282 2374,-70 2158,-70"/>
</g>
<g id="clust22" class="cluster">
<title>cluster_FormModule_declarations</title>
<polygon fill="none" stroke="#000000" points="2166,-78 2166,-130 2362,-130 2362,-78 2166,-78"/>
</g>
<g id="clust25" class="cluster">
<title>cluster_FormModule_exports</title>
<polygon fill="none" stroke="#000000" points="2166,-222 2166,-274 2366,-274 2366,-222 2166,-222"/>
</g>
<g id="clust28" class="cluster">
<title>cluster_HiddenModule</title>
<polygon fill="none" stroke="#000000" stroke-dasharray="1,5" points="2382,-70 2382,-282 2540,-282 2540,-70 2382,-70"/>
</g>
<g id="clust29" class="cluster">
<title>cluster_HiddenModule_declarations</title>
<polygon fill="none" stroke="#000000" points="2391,-78 2391,-130 2529,-130 2529,-78 2391,-78"/>
</g>
<g id="clust32" class="cluster">
<title>cluster_HiddenModule_exports</title>
<polygon fill="none" stroke="#000000" points="2390,-222 2390,-274 2532,-274 2532,-222 2390,-222"/>
</g>
<g id="clust35" class="cluster">
<title>cluster_JsonSchemaFormModule</title>
<polygon fill="none" stroke="#000000" stroke-dasharray="1,5" points="840,-138 840,-350 1742,-350 1742,-138 840,-138"/>
</g>
<g id="clust37" class="cluster">
<title>cluster_JsonSchemaFormModule_imports</title>
<polygon fill="none" stroke="#000000" points="990,-146 990,-198 1223,-198 1223,-146 990,-146"/>
</g>
<g id="clust38" class="cluster">
<title>cluster_JsonSchemaFormModule_exports</title>
<polygon fill="none" stroke="#000000" points="848,-290 848,-342 1734,-342 1734,-290 848,-290"/>
</g>
<g id="clust41" class="cluster">
<title>cluster_SelectWidgetModule</title>
<polygon fill="none" stroke="#000000" stroke-dasharray="1,5" points="1750,-138 1750,-206 2122,-206 2122,-138 1750,-138"/>
</g>
<g id="clust42" class="cluster">
<title>cluster_SelectWidgetModule_declarations</title>
<polygon fill="none" stroke="#000000" points="1942,-146 1942,-198 2114,-198 2114,-146 1942,-146"/>
</g>
<g id="clust45" class="cluster">
<title>cluster_SelectWidgetModule_exports</title>
<polygon fill="none" stroke="#000000" points="1758,-146 1758,-198 1934,-198 1934,-146 1758,-146"/>
</g>
<g id="clust48" class="cluster">
<title>cluster_TemplateModule</title>
<polygon fill="none" stroke="#000000" stroke-dasharray="1,5" points="504,-214 504,-282 832,-282 832,-214 504,-214"/>
</g>
<g id="clust49" class="cluster">
<title>cluster_TemplateModule_declarations</title>
<polygon fill="none" stroke="#000000" points="674,-222 674,-274 824,-274 824,-222 674,-222"/>
</g>
<g id="clust52" class="cluster">
<title>cluster_TemplateModule_exports</title>
<polygon fill="none" stroke="#000000" points="512,-222 512,-274 666,-274 666,-222 512,-222"/>
</g>
<!-- ButtonComponent -->
<g id="node1" class="node">
<title>ButtonComponent</title>
<polygon fill="#ffffb3" stroke="#000000" points="144.9511,-122 25.0489,-122 25.0489,-86 144.9511,-86 144.9511,-122"/>
<text text-anchor="middle" x="85" y="-99.8" font-family="Times,serif" font-size="14.00" fill="#000000">ButtonComponent</text>
</g>
<!-- ButtonModule -->
<g id="node2" class="node">
<title>ButtonModule</title>
<polygon fill="#8dd3c7" stroke="#000000" points="133.6682,-190 130.6682,-194 109.6682,-194 106.6682,-190 36.3318,-190 36.3318,-154 133.6682,-154 133.6682,-190"/>
<text text-anchor="middle" x="85" y="-167.8" font-family="Times,serif" font-size="14.00" fill="#000000">ButtonModule</text>
</g>
<!-- ButtonComponent&#45;&gt;ButtonModule -->
<g id="edge1" class="edge">
<title>ButtonComponent&#45;&gt;ButtonModule</title>
<path fill="none" stroke="#000000" d="M85,-122.2228C85,-122.2228 85,-143.7269 85,-143.7269"/>
<polygon fill="#000000" stroke="#000000" points="81.5001,-143.7269 85,-153.7269 88.5001,-143.727 81.5001,-143.7269"/>
</g>
<!-- ButtonComponent  -->
<g id="node3" class="node">
<title>ButtonComponent </title>
<polygon fill="#fb8072" stroke="#000000" points="146.4502,-266 23.5498,-266 23.5498,-230 146.4502,-230 146.4502,-266"/>
<text text-anchor="middle" x="85" y="-243.8" font-family="Times,serif" font-size="14.00" fill="#000000">ButtonComponent </text>
</g>
<!-- ButtonModule&#45;&gt;ButtonComponent  -->
<g id="edge2" class="edge">
<title>ButtonModule&#45;&gt;ButtonComponent </title>
<path fill="none" stroke="#000000" stroke-dasharray="5,2" d="M68.7221,-190.0109C68.7221,-190.0109 68.7221,-219.855 68.7221,-219.855"/>
<polygon fill="#000000" stroke="#000000" points="65.2222,-219.8549 68.7221,-229.855 72.2222,-219.855 65.2222,-219.8549"/>
</g>
<!-- JsonSchemaFormModule -->
<g id="node16" class="node">
<title>JsonSchemaFormModule</title>
<polygon fill="#8dd3c7" stroke="#000000" points="1335.5898,-266 1332.5898,-270 1311.5898,-270 1308.5898,-266 1176.4102,-266 1176.4102,-230 1335.5898,-230 1335.5898,-266"/>
<text text-anchor="middle" x="1256" y="-243.8" font-family="Times,serif" font-size="14.00" fill="#000000">JsonSchemaFormModule</text>
</g>
<!-- ButtonModule&#45;&gt;JsonSchemaFormModule -->
<g id="edge11" class="edge">
<title>ButtonModule&#45;&gt;JsonSchemaFormModule</title>
<path fill="none" stroke="#000000" d="M101.2779,-190.0439C101.2779,-202.5633 101.2779,-217 101.2779,-217 101.2779,-217 1189.4303,-217 1189.4303,-217 1189.4303,-217 1189.4303,-219.9672 1189.4303,-219.9672"/>
<polygon fill="#000000" stroke="#000000" points="1185.9304,-219.9671 1189.4303,-229.9672 1192.9304,-219.9672 1185.9304,-219.9671"/>
</g>
<!-- ContainerComponent -->
<g id="node4" class="node">
<title>ContainerComponent</title>
<polygon fill="#ffffb3" stroke="#000000" points="322.0408,-122 185.9592,-122 185.9592,-86 322.0408,-86 322.0408,-122"/>
<text text-anchor="middle" x="254" y="-99.8" font-family="Times,serif" font-size="14.00" fill="#000000">ContainerComponent</text>
</g>
<!-- ContainerModule -->
<g id="node5" class="node">
<title>ContainerModule</title>
<polygon fill="#8dd3c7" stroke="#000000" points="468.2577,-190 465.2577,-194 444.2577,-194 441.2577,-190 353.7423,-190 353.7423,-154 468.2577,-154 468.2577,-190"/>
<text text-anchor="middle" x="411" y="-167.8" font-family="Times,serif" font-size="14.00" fill="#000000">ContainerModule</text>
</g>
<!-- ContainerComponent&#45;&gt;ContainerModule -->
<g id="edge3" class="edge">
<title>ContainerComponent&#45;&gt;ContainerModule</title>
<path fill="none" stroke="#000000" d="M254,-122.2228C254,-142.3652 254,-172 254,-172 254,-172 343.4305,-172 343.4305,-172"/>
<polygon fill="#000000" stroke="#000000" points="343.4305,-175.5001 353.4305,-172 343.4305,-168.5001 343.4305,-175.5001"/>
</g>
<!-- ContainerComponent  -->
<g id="node7" class="node">
<title>ContainerComponent </title>
<polygon fill="#fb8072" stroke="#000000" points="480.04,-266 339.96,-266 339.96,-230 480.04,-230 480.04,-266"/>
<text text-anchor="middle" x="410" y="-243.8" font-family="Times,serif" font-size="14.00" fill="#000000">ContainerComponent </text>
</g>
<!-- ContainerModule&#45;&gt;ContainerComponent  -->
<g id="edge5" class="edge">
<title>ContainerModule&#45;&gt;ContainerComponent </title>
<path fill="none" stroke="#000000" stroke-dasharray="5,2" d="M411,-190.0109C411,-190.0109 411,-219.855 411,-219.855"/>
<polygon fill="#000000" stroke="#000000" points="407.5001,-219.8549 411,-229.855 414.5001,-219.855 407.5001,-219.8549"/>
</g>
<!-- ContainerModule&#45;&gt;JsonSchemaFormModule -->
<g id="edge12" class="edge">
<title>ContainerModule&#45;&gt;JsonSchemaFormModule</title>
<path fill="none" stroke="#000000" d="M468.3269,-166C584.353,-166 836.0707,-166 836.0707,-166 836.0707,-166 836.0707,-248 836.0707,-248 836.0707,-248 1166.0261,-248 1166.0261,-248"/>
<polygon fill="#000000" stroke="#000000" points="1166.0261,-251.5001 1176.0261,-248 1166.026,-244.5001 1166.0261,-251.5001"/>
</g>
<!-- SelectWidgetModule -->
<g id="node6" class="node">
<title>SelectWidgetModule</title>
<polygon fill="#8dd3c7" stroke="#000000" points="480.4678,-122 477.4678,-126 456.4678,-126 453.4678,-122 345.5322,-122 345.5322,-86 480.4678,-86 480.4678,-122"/>
<text text-anchor="middle" x="413" y="-99.8" font-family="Times,serif" font-size="14.00" fill="#000000">SelectWidgetModule</text>
</g>
<!-- SelectWidgetModule&#45;&gt;ContainerModule -->
<g id="edge4" class="edge">
<title>SelectWidgetModule&#45;&gt;ContainerModule</title>
<path fill="none" stroke="#000000" d="M411,-122.2228C411,-122.2228 411,-143.7269 411,-143.7269"/>
<polygon fill="#000000" stroke="#000000" points="407.5001,-143.7269 411,-153.7269 414.5001,-143.727 407.5001,-143.7269"/>
</g>
<!-- FormModule -->
<g id="node9" class="node">
<title>FormModule</title>
<polygon fill="#8dd3c7" stroke="#000000" points="2282.8837,-190 2279.8837,-194 2258.8837,-194 2255.8837,-190 2193.1163,-190 2193.1163,-154 2282.8837,-154 2282.8837,-190"/>
<text text-anchor="middle" x="2238" y="-167.8" font-family="Times,serif" font-size="14.00" fill="#000000">FormModule</text>
</g>
<!-- SelectWidgetModule&#45;&gt;FormModule -->
<g id="edge7" class="edge">
<title>SelectWidgetModule&#45;&gt;FormModule</title>
<path fill="none" stroke="#000000" d="M480.5243,-94C798.2195,-94 2128.7714,-94 2128.7714,-94 2128.7714,-94 2128.7714,-166 2128.7714,-166 2128.7714,-166 2182.9419,-166 2182.9419,-166"/>
<polygon fill="#000000" stroke="#000000" points="2182.942,-169.5001 2192.9419,-166 2182.9419,-162.5001 2182.942,-169.5001"/>
</g>
<!-- SelectWidgetModule&#45;&gt;JsonSchemaFormModule -->
<g id="edge16" class="edge">
<title>SelectWidgetModule&#45;&gt;JsonSchemaFormModule</title>
<path fill="none" stroke="#000000" d="M480.516,-115C680.4228,-115 1255.4355,-115 1255.4355,-115 1255.4355,-115 1255.4355,-219.7858 1255.4355,-219.7858"/>
<polygon fill="#000000" stroke="#000000" points="1251.9356,-219.7858 1255.4355,-229.7858 1258.9356,-219.7858 1251.9356,-219.7858"/>
</g>
<!-- SelectWidgetComponent  -->
<g id="node25" class="node">
<title>SelectWidgetComponent </title>
<polygon fill="#fb8072" stroke="#000000" points="1926.2506,-190 1765.7494,-190 1765.7494,-154 1926.2506,-154 1926.2506,-190"/>
<text text-anchor="middle" x="1846" y="-167.8" font-family="Times,serif" font-size="14.00" fill="#000000">SelectWidgetComponent </text>
</g>
<!-- SelectWidgetModule&#45;&gt;SelectWidgetComponent  -->
<g id="edge26" class="edge">
<title>SelectWidgetModule&#45;&gt;SelectWidgetComponent </title>
<path fill="none" stroke="#000000" stroke-dasharray="5,2" d="M480.6728,-108C764.72,-108 1846,-108 1846,-108 1846,-108 1846,-143.8314 1846,-143.8314"/>
<polygon fill="#000000" stroke="#000000" points="1842.5001,-143.8313 1846,-153.8314 1849.5001,-143.8314 1842.5001,-143.8313"/>
</g>
<!-- JsonSchemaFormComponent -->
<g id="node8" class="node">
<title>JsonSchemaFormComponent</title>
<polygon fill="#ffffb3" stroke="#000000" points="2354.3724,-122 2173.6276,-122 2173.6276,-86 2354.3724,-86 2354.3724,-122"/>
<text text-anchor="middle" x="2264" y="-99.8" font-family="Times,serif" font-size="14.00" fill="#000000">JsonSchemaFormComponent</text>
</g>
<!-- JsonSchemaFormComponent&#45;&gt;FormModule -->
<g id="edge6" class="edge">
<title>JsonSchemaFormComponent&#45;&gt;FormModule</title>
<path fill="none" stroke="#000000" d="M2238,-122.2228C2238,-122.2228 2238,-143.7269 2238,-143.7269"/>
<polygon fill="#000000" stroke="#000000" points="2234.5001,-143.7269 2238,-153.7269 2241.5001,-143.727 2234.5001,-143.7269"/>
</g>
<!-- JsonSchemaFormComponent  -->
<g id="node10" class="node">
<title>JsonSchemaFormComponent </title>
<polygon fill="#fb8072" stroke="#000000" points="2358.3728,-266 2173.6272,-266 2173.6272,-230 2358.3728,-230 2358.3728,-266"/>
<text text-anchor="middle" x="2266" y="-243.8" font-family="Times,serif" font-size="14.00" fill="#000000">JsonSchemaFormComponent </text>
</g>
<!-- FormModule&#45;&gt;JsonSchemaFormComponent  -->
<g id="edge8" class="edge">
<title>FormModule&#45;&gt;JsonSchemaFormComponent </title>
<path fill="none" stroke="#000000" stroke-dasharray="5,2" d="M2238,-190.0109C2238,-190.0109 2238,-219.855 2238,-219.855"/>
<polygon fill="#000000" stroke="#000000" points="2234.5001,-219.8549 2238,-229.855 2241.5001,-219.855 2234.5001,-219.8549"/>
</g>
<!-- FormModule&#45;&gt;JsonSchemaFormModule -->
<g id="edge14" class="edge">
<title>FormModule&#45;&gt;JsonSchemaFormModule</title>
<path fill="none" stroke="#000000" d="M2193.0577,-178C2171.8701,-178 2151.1676,-178 2151.1676,-178 2151.1676,-178 2151.1676,-238 2151.1676,-238 2151.1676,-238 1345.8336,-238 1345.8336,-238"/>
<polygon fill="#000000" stroke="#000000" points="1345.8337,-234.5001 1335.8336,-238 1345.8336,-241.5001 1345.8337,-234.5001"/>
</g>
<!-- HiddenComponent -->
<g id="node11" class="node">
<title>HiddenComponent</title>
<polygon fill="#ffffb3" stroke="#000000" points="2521.045,-122 2398.955,-122 2398.955,-86 2521.045,-86 2521.045,-122"/>
<text text-anchor="middle" x="2460" y="-99.8" font-family="Times,serif" font-size="14.00" fill="#000000">HiddenComponent</text>
</g>
<!-- HiddenModule -->
<g id="node12" class="node">
<title>HiddenModule</title>
<polygon fill="#8dd3c7" stroke="#000000" points="2510.2619,-190 2507.2619,-194 2486.2619,-194 2483.2619,-190 2409.7381,-190 2409.7381,-154 2510.2619,-154 2510.2619,-190"/>
<text text-anchor="middle" x="2460" y="-167.8" font-family="Times,serif" font-size="14.00" fill="#000000">HiddenModule</text>
</g>
<!-- HiddenComponent&#45;&gt;HiddenModule -->
<g id="edge9" class="edge">
<title>HiddenComponent&#45;&gt;HiddenModule</title>
<path fill="none" stroke="#000000" d="M2460,-122.2228C2460,-122.2228 2460,-143.7269 2460,-143.7269"/>
<polygon fill="#000000" stroke="#000000" points="2456.5001,-143.7269 2460,-153.7269 2463.5001,-143.727 2456.5001,-143.7269"/>
</g>
<!-- HiddenComponent  -->
<g id="node13" class="node">
<title>HiddenComponent </title>
<polygon fill="#fb8072" stroke="#000000" points="2524.0442,-266 2397.9558,-266 2397.9558,-230 2524.0442,-230 2524.0442,-266"/>
<text text-anchor="middle" x="2461" y="-243.8" font-family="Times,serif" font-size="14.00" fill="#000000">HiddenComponent </text>
</g>
<!-- HiddenModule&#45;&gt;HiddenComponent  -->
<g id="edge10" class="edge">
<title>HiddenModule&#45;&gt;HiddenComponent </title>
<path fill="none" stroke="#000000" stroke-dasharray="5,2" d="M2476.7936,-190.0109C2476.7936,-190.0109 2476.7936,-219.855 2476.7936,-219.855"/>
<polygon fill="#000000" stroke="#000000" points="2473.2937,-219.8549 2476.7936,-229.855 2480.2937,-219.855 2473.2937,-219.8549"/>
</g>
<!-- HiddenModule&#45;&gt;JsonSchemaFormModule -->
<g id="edge15" class="edge">
<title>HiddenModule&#45;&gt;JsonSchemaFormModule</title>
<path fill="none" stroke="#000000" d="M2443.2064,-190.2434C2443.2064,-197.4297 2443.2064,-204 2443.2064,-204 2443.2064,-204 1295.4902,-204 1295.4902,-204 1295.4902,-204 1295.4902,-219.8495 1295.4902,-219.8495"/>
<polygon fill="#000000" stroke="#000000" points="1291.9903,-219.8494 1295.4902,-229.8495 1298.9903,-219.8495 1291.9903,-219.8494"/>
</g>
<!-- CoreModule -->
<g id="node14" class="node">
<title>CoreModule</title>
<polygon fill="#8dd3c7" stroke="#000000" points="1215.2619,-190 1212.2619,-194 1191.2619,-194 1188.2619,-190 1128.7381,-190 1128.7381,-154 1215.2619,-154 1215.2619,-190"/>
<text text-anchor="middle" x="1172" y="-167.8" font-family="Times,serif" font-size="14.00" fill="#000000">CoreModule</text>
</g>
<!-- CoreModule&#45;&gt;JsonSchemaFormModule -->
<g id="edge13" class="edge">
<title>CoreModule&#45;&gt;JsonSchemaFormModule</title>
<path fill="none" stroke="#000000" d="M1202.4056,-190.0109C1202.4056,-190.0109 1202.4056,-219.855 1202.4056,-219.855"/>
<polygon fill="#000000" stroke="#000000" points="1198.9057,-219.8549 1202.4056,-229.855 1205.9057,-219.855 1198.9057,-219.8549"/>
</g>
<!-- TemplateModule -->
<g id="node15" class="node">
<title>TemplateModule</title>
<polygon fill="#8dd3c7" stroke="#000000" points="1110.4188,-190 1107.4188,-194 1086.4188,-194 1083.4188,-190 997.5812,-190 997.5812,-154 1110.4188,-154 1110.4188,-190"/>
<text text-anchor="middle" x="1054" y="-167.8" font-family="Times,serif" font-size="14.00" fill="#000000">TemplateModule</text>
</g>
<!-- TemplateModule&#45;&gt;JsonSchemaFormModule -->
<g id="edge17" class="edge">
<title>TemplateModule&#45;&gt;JsonSchemaFormModule</title>
<path fill="none" stroke="#000000" d="M1072.7363,-190.0267C1072.7363,-210.7672 1072.7363,-242 1072.7363,-242 1072.7363,-242 1166.4174,-242 1166.4174,-242"/>
<polygon fill="#000000" stroke="#000000" points="1166.4175,-245.5001 1176.4174,-242 1166.4174,-238.5001 1166.4175,-245.5001"/>
</g>
<!-- TemplateComponent  -->
<g id="node27" class="node">
<title>TemplateComponent </title>
<polygon fill="#fb8072" stroke="#000000" points="657.7009,-266 520.2991,-266 520.2991,-230 657.7009,-230 657.7009,-266"/>
<text text-anchor="middle" x="589" y="-243.8" font-family="Times,serif" font-size="14.00" fill="#000000">TemplateComponent </text>
</g>
<!-- TemplateModule&#45;&gt;TemplateComponent  -->
<g id="edge28" class="edge">
<title>TemplateModule&#45;&gt;TemplateComponent </title>
<path fill="none" stroke="#000000" stroke-dasharray="5,2" d="M997.4468,-178C873.5235,-178 589,-178 589,-178 589,-178 589,-219.9733 589,-219.9733"/>
<polygon fill="#000000" stroke="#000000" points="585.5001,-219.9732 589,-229.9733 592.5001,-219.9733 585.5001,-219.9732"/>
</g>
<!-- ButtonModule  -->
<g id="node17" class="node">
<title>ButtonModule </title>
<polygon fill="#fb8072" stroke="#000000" points="1725.6677,-334 1624.3323,-334 1624.3323,-298 1725.6677,-298 1725.6677,-334"/>
<text text-anchor="middle" x="1675" y="-311.8" font-family="Times,serif" font-size="14.00" fill="#000000">ButtonModule </text>
</g>
<!-- JsonSchemaFormModule&#45;&gt;ButtonModule  -->
<g id="edge18" class="edge">
<title>JsonSchemaFormModule&#45;&gt;ButtonModule </title>
<path fill="none" stroke="#000000" stroke-dasharray="5,2" d="M1335.7969,-245C1457.366,-245 1675,-245 1675,-245 1675,-245 1675,-287.7157 1675,-287.7157"/>
<polygon fill="#000000" stroke="#000000" points="1671.5001,-287.7157 1675,-297.7157 1678.5001,-287.7158 1671.5001,-287.7157"/>
</g>
<!-- ContainerModule  -->
<g id="node18" class="node">
<title>ContainerModule </title>
<polygon fill="#fb8072" stroke="#000000" points="1606.2577,-334 1487.7423,-334 1487.7423,-298 1606.2577,-298 1606.2577,-334"/>
<text text-anchor="middle" x="1547" y="-311.8" font-family="Times,serif" font-size="14.00" fill="#000000">ContainerModule </text>
</g>
<!-- JsonSchemaFormModule&#45;&gt;ContainerModule  -->
<g id="edge19" class="edge">
<title>JsonSchemaFormModule&#45;&gt;ContainerModule </title>
<path fill="none" stroke="#000000" stroke-dasharray="5,2" d="M1335.9019,-252C1422.0495,-252 1547,-252 1547,-252 1547,-252 1547,-287.8314 1547,-287.8314"/>
<polygon fill="#000000" stroke="#000000" points="1543.5001,-287.8313 1547,-297.8314 1550.5001,-287.8314 1543.5001,-287.8313"/>
</g>
<!-- CoreModule  -->
<g id="node19" class="node">
<title>CoreModule </title>
<polygon fill="#fb8072" stroke="#000000" points="1470.262,-334 1379.738,-334 1379.738,-298 1470.262,-298 1470.262,-334"/>
<text text-anchor="middle" x="1425" y="-311.8" font-family="Times,serif" font-size="14.00" fill="#000000">CoreModule </text>
</g>
<!-- JsonSchemaFormModule&#45;&gt;CoreModule  -->
<g id="edge20" class="edge">
<title>JsonSchemaFormModule&#45;&gt;CoreModule </title>
<path fill="none" stroke="#000000" stroke-dasharray="5,2" d="M1335.5513,-259C1379.3848,-259 1425,-259 1425,-259 1425,-259 1425,-287.9648 1425,-287.9648"/>
<polygon fill="#000000" stroke="#000000" points="1421.5001,-287.9648 1425,-297.9648 1428.5001,-287.9649 1421.5001,-287.9648"/>
</g>
<!-- FormModule  -->
<g id="node20" class="node">
<title>FormModule </title>
<polygon fill="#fb8072" stroke="#000000" points="1361.8844,-334 1268.1156,-334 1268.1156,-298 1361.8844,-298 1361.8844,-334"/>
<text text-anchor="middle" x="1315" y="-311.8" font-family="Times,serif" font-size="14.00" fill="#000000">FormModule </text>
</g>
<!-- JsonSchemaFormModule&#45;&gt;FormModule  -->
<g id="edge21" class="edge">
<title>JsonSchemaFormModule&#45;&gt;FormModule </title>
<path fill="none" stroke="#000000" stroke-dasharray="5,2" d="M1301.9266,-266.2228C1301.9266,-266.2228 1301.9266,-287.7269 1301.9266,-287.7269"/>
<polygon fill="#000000" stroke="#000000" points="1298.4266,-287.7269 1301.9266,-297.7269 1305.4266,-287.727 1298.4266,-287.7269"/>
</g>
<!-- HiddenModule  -->
<g id="node21" class="node">
<title>HiddenModule </title>
<polygon fill="#fb8072" stroke="#000000" points="1250.2619,-334 1145.7381,-334 1145.7381,-298 1250.2619,-298 1250.2619,-334"/>
<text text-anchor="middle" x="1198" y="-311.8" font-family="Times,serif" font-size="14.00" fill="#000000">HiddenModule </text>
</g>
<!-- JsonSchemaFormModule&#45;&gt;HiddenModule  -->
<g id="edge22" class="edge">
<title>JsonSchemaFormModule&#45;&gt;HiddenModule </title>
<path fill="none" stroke="#000000" stroke-dasharray="5,2" d="M1213.293,-266.2228C1213.293,-266.2228 1213.293,-287.7269 1213.293,-287.7269"/>
<polygon fill="#000000" stroke="#000000" points="1209.793,-287.7269 1213.293,-297.7269 1216.793,-287.727 1209.793,-287.7269"/>
</g>
<!-- SelectWidgetModule  -->
<g id="node22" class="node">
<title>SelectWidgetModule </title>
<polygon fill="#fb8072" stroke="#000000" points="1128.4686,-334 989.5314,-334 989.5314,-298 1128.4686,-298 1128.4686,-334"/>
<text text-anchor="middle" x="1059" y="-311.8" font-family="Times,serif" font-size="14.00" fill="#000000">SelectWidgetModule </text>
</g>
<!-- JsonSchemaFormModule&#45;&gt;SelectWidgetModule  -->
<g id="edge23" class="edge">
<title>JsonSchemaFormModule&#45;&gt;SelectWidgetModule </title>
<path fill="none" stroke="#000000" stroke-dasharray="5,2" d="M1176.4354,-260C1146.3451,-260 1119.2215,-260 1119.2215,-260 1119.2215,-260 1119.2215,-287.973 1119.2215,-287.973"/>
<polygon fill="#000000" stroke="#000000" points="1115.7215,-287.973 1119.2215,-297.973 1122.7215,-287.973 1115.7215,-287.973"/>
</g>
<!-- TemplateModule  -->
<g id="node23" class="node">
<title>TemplateModule </title>
<polygon fill="#fb8072" stroke="#000000" points="971.918,-334 856.082,-334 856.082,-298 971.918,-298 971.918,-334"/>
<text text-anchor="middle" x="914" y="-311.8" font-family="Times,serif" font-size="14.00" fill="#000000">TemplateModule </text>
</g>
<!-- JsonSchemaFormModule&#45;&gt;TemplateModule  -->
<g id="edge24" class="edge">
<title>JsonSchemaFormModule&#45;&gt;TemplateModule </title>
<path fill="none" stroke="#000000" stroke-dasharray="5,2" d="M1176.2478,-254C1075.1895,-254 914,-254 914,-254 914,-254 914,-287.7333 914,-287.7333"/>
<polygon fill="#000000" stroke="#000000" points="910.5001,-287.7333 914,-297.7333 917.5001,-287.7333 910.5001,-287.7333"/>
</g>
<!-- SelectWidgetComponent -->
<g id="node24" class="node">
<title>SelectWidgetComponent</title>
<polygon fill="#ffffb3" stroke="#000000" points="2106.2506,-190 1949.7494,-190 1949.7494,-154 2106.2506,-154 2106.2506,-190"/>
<text text-anchor="middle" x="2028" y="-167.8" font-family="Times,serif" font-size="14.00" fill="#000000">SelectWidgetComponent</text>
</g>
<!-- SelectWidgetComponent&#45;&gt;SelectWidgetModule -->
<g id="edge25" class="edge">
<title>SelectWidgetComponent&#45;&gt;SelectWidgetModule</title>
<path fill="none" stroke="#000000" d="M2028,-153.7157C2028,-132.6789 2028,-101 2028,-101 2028,-101 490.5939,-101 490.5939,-101"/>
<polygon fill="#000000" stroke="#000000" points="490.5939,-97.5001 480.5939,-101 490.5939,-104.5001 490.5939,-97.5001"/>
</g>
<!-- TemplateComponent -->
<g id="node26" class="node">
<title>TemplateComponent</title>
<polygon fill="#ffffb3" stroke="#000000" points="816.2008,-266 681.7992,-266 681.7992,-230 816.2008,-230 816.2008,-266"/>
<text text-anchor="middle" x="749" y="-243.8" font-family="Times,serif" font-size="14.00" fill="#000000">TemplateComponent</text>
</g>
<!-- TemplateComponent&#45;&gt;TemplateModule -->
<g id="edge27" class="edge">
<title>TemplateComponent&#45;&gt;TemplateModule</title>
<path fill="none" stroke="#000000" d="M816.1161,-236C900.727,-236 1035.2637,-236 1035.2637,-236 1035.2637,-236 1035.2637,-200.1686 1035.2637,-200.1686"/>
<polygon fill="#000000" stroke="#000000" points="1038.7638,-200.1686 1035.2637,-190.1686 1031.7638,-200.1687 1038.7638,-200.1686"/>
</g>
</g>
</svg>
